<?xml version="1.0" encoding="UTF-8"?>
<svg version="1.1" xmlns="http://www.w3.org/2000/svg" width="238" height="215">
<path d="M0 0 C0.89014801 -0.00524185 1.78029602 -0.0104837 2.69741821 -0.0158844 C4.57854165 -0.02230085 6.45970523 -0.02097246 8.34082031 -0.01245117 C11.20971738 -0.00395613 14.07661283 -0.03268267 16.9453125 -0.06445312 C18.77604107 -0.06606572 20.60677315 -0.06548649 22.4375 -0.0625 C23.29080902 -0.07373398 24.14411804 -0.08496796 25.02328491 -0.09654236 C30.41803368 -0.03386905 33.75244012 0.60266259 37.8515625 4.43359375 C39.65361242 7.21338031 40.98369625 10.13060578 42.3125 13.16015625 C42.70676178 14.02184418 43.10102356 14.8835321 43.50723267 15.77133179 C44.76326704 18.52671121 45.99510216 21.29215773 47.2265625 24.05859375 C48.04531177 25.86399099 48.86561141 27.66868599 49.6875 29.47265625 C52.87017193 36.47802133 56.00014448 43.50651889 59.11450195 50.54248047 C59.4731131 51.35204193 59.83172424 52.16160339 60.20120239 52.99569702 C60.86756736 54.50190578 61.53224204 56.0088641 62.1947937 57.51675415 C64.61033996 62.98664804 67.26621468 68.30069388 69.98046875 73.62890625 C73.58005629 80.82808132 76.76199221 88.23595167 80.02294922 95.59277344 C80.60497625 96.88578577 81.21742744 98.16532363 81.8515625 99.43359375 C82.28125 102.26171875 82.28125 102.26171875 81.8515625 105.43359375 C79.88614624 107.39269034 78.26454044 108.69963342 75.9765625 110.18359375 C75.36321045 110.60189453 74.7498584 111.02019531 74.11791992 111.45117188 C66.90552984 116.26002915 59.27222135 120.38452812 51.62231445 124.44726562 C49.98330949 125.36020924 48.41258361 126.39291301 46.8515625 127.43359375 C44.4050293 127.46875 44.4050293 127.46875 41.8515625 126.43359375 C40.29596277 124.22220762 39.15750346 122.27824614 37.99609375 119.87109375 C37.65616898 119.19997559 37.3162442 118.52885742 36.96601868 117.83740234 C33.61600841 111.14951303 30.50980893 104.34357979 27.46557617 97.51217651 C25.85958248 93.90921748 24.23643431 90.31400406 22.61328125 86.71875 C22.29229462 86.00711197 21.97130798 85.29547394 21.64059448 84.56227112 C18.80243409 78.28747203 15.85027848 72.07073392 12.8515625 65.87109375 C9.51692971 58.97143755 6.30218439 52.04421448 3.27148438 45.00585938 C1.36961338 40.59260211 -0.60948951 36.22269297 -2.6484375 31.87109375 C-2.93243408 31.26209229 -3.21643066 30.65309082 -3.5090332 30.02563477 C-5.02268894 26.79127267 -6.56648916 23.5745574 -8.14453125 20.37109375 C-8.469375 19.70150635 -8.79421875 19.03191895 -9.12890625 18.34204102 C-9.74806688 17.0669176 -10.37640184 15.79619098 -11.015625 14.53100586 C-12.86533282 10.69573898 -13.82909369 7.68016553 -13.1484375 3.43359375 C-9.56694788 -0.6133754 -5.00381048 -0.01713332 0 0 Z " fill="#00622A" transform="translate(111.1484375,8.56640625)"/>
<path d="M0 0 C1.02931641 -0.02449219 2.05863281 -0.04898438 3.11914062 -0.07421875 C11.01197002 -0.10417256 18.39513241 0.95069582 24.44140625 6.41015625 C24.87324219 7.07917969 25.30507812 7.74820313 25.75 8.4375 C26.20503906 9.10910156 26.66007813 9.78070313 27.12890625 10.47265625 C30.56347862 16.64474756 29.98954685 24.56400034 28.57421875 31.2890625 C26.17177335 38.63398369 21.95989446 44.37569441 17.1875 50.375 C16.0428125 51.921875 16.0428125 51.921875 14.875 53.5 C10.7110328 57.95447654 5.98243978 61.62270988 1.1875 65.375 C0.28 66.09816406 -0.6275 66.82132812 -1.5625 67.56640625 C-13.17875587 76.58513824 -25.96191223 83.85120157 -38.75 91.0625 C-39.51328613 91.4968335 -40.27657227 91.93116699 -41.06298828 92.37866211 C-41.77310059 92.7731958 -42.48321289 93.16772949 -43.21484375 93.57421875 C-43.83866943 93.92315186 -44.46249512 94.27208496 -45.10522461 94.6315918 C-46.8125 95.375 -46.8125 95.375 -49.8125 95.375 C-50.1425 94.385 -50.4725 93.395 -50.8125 92.375 C-52.13727959 93.42214924 -53.44693746 94.48844669 -54.75 95.5625 C-55.48089844 96.15417969 -56.21179688 96.74585938 -56.96484375 97.35546875 C-59.14679315 99.74039019 -59.54293759 101.1860258 -59.8125 104.375 C-59.60625 105.365 -59.4 106.355 -59.1875 107.375 C-58.8125 110.375 -58.8125 110.375 -60.0625 113.125 C-61.8125 115.375 -61.8125 115.375 -64.8125 117.375 C-65.24789566 119.01610672 -65.68219515 120.65751681 -66.109375 122.30078125 C-67.79880983 127.28461401 -70.41402223 132.04069325 -75.1015625 134.6484375 C-78.89964204 135.99694131 -80.91277761 136.67490746 -84.8125 135.375 C-88.00760305 130.9177744 -89.38099177 125.7823324 -90.3203125 120.453125 C-90.72536806 118.32268005 -90.72536806 118.32268005 -91.90234375 116.41796875 C-93.0715843 113.79345027 -92.73019501 112.24512668 -92.25 109.4375 C-91.6682975 104.91608512 -92.23839552 103.18467463 -94.8125 99.375 C-95 95.5625 -95 95.5625 -94.8125 92.375 C-99.79510499 91.65171863 -104.06822646 91.30260144 -109.0625 92 C-112.41245846 92.4017863 -113.69162411 92.42093284 -116.9375 91.1875 C-117.55625 90.589375 -118.175 89.99125 -118.8125 89.375 C-118.8125 88.055 -118.8125 86.735 -118.8125 85.375 C-120.1325 84.715 -121.4525 84.055 -122.8125 83.375 C-123.50089211 69.41593774 -123.50089211 69.41593774 -121.0625 65.625 C-118.95613208 63.51863208 -117.43364969 62.64329824 -114.8125 61.375 C-113.76357762 59.73868108 -112.76343297 58.07014137 -111.8125 56.375 C-109.60122321 53.2326593 -106.82942517 52.54338537 -103.15234375 51.71484375 C-99.04455143 51.11821949 -94.95152244 51.22233114 -90.8125 51.375 C-90.750625 52.15875 -90.68875 52.9425 -90.625 53.75 C-90.356875 54.61625 -90.08875 55.4825 -89.8125 56.375 C-87.41720331 57.69981546 -87.41720331 57.69981546 -84.8125 58.375 C-83.8225 58.87 -83.8225 58.87 -82.8125 59.375 C-82.8125 58.715 -82.8125 58.055 -82.8125 57.375 C-75.8825 57.87 -75.8825 57.87 -68.8125 58.375 C-67.47449 61.16451193 -66.14192906 63.95640245 -64.8125 66.75 C-64.4309375 67.5440625 -64.049375 68.338125 -63.65625 69.15625 C-63.11484375 70.29707031 -63.11484375 70.29707031 -62.5625 71.4609375 C-62.22734375 72.1626709 -61.8921875 72.8644043 -61.546875 73.58740234 C-60.8125 75.375 -60.8125 75.375 -60.8125 77.375 C-60.173125 77.66375 -59.53375 77.9525 -58.875 78.25 C-56.8125 79.375 -56.8125 79.375 -55.8125 81.375 C-55.29816406 80.77816406 -54.78382813 80.18132812 -54.25390625 79.56640625 C-51.34898478 76.95894873 -48.32577465 75.71935496 -44.75 74.3125 C-29.35230246 67.88561939 -13.32504637 59.15503449 -1.58984375 47.08984375 C0.1875 45.375 0.1875 45.375 2.1875 45.375 C2.1875 44.715 2.1875 44.055 2.1875 43.375 C2.8475 43.375 3.5075 43.375 4.1875 43.375 C4.44789063 42.80007812 4.70828125 42.22515625 4.9765625 41.6328125 C6.27414797 39.21344347 7.79224921 37.34492561 9.5625 35.25 C13.83951248 29.81873102 17.32477324 24.08137739 17.0625 17 C15.52066871 12.21156421 15.52066871 12.21156421 12 8.75 C5.1731469 5.41242737 -1.25879923 4.99578102 -8.75 4.75 C-9.72001953 4.71132812 -10.69003906 4.67265625 -11.68945312 4.6328125 C-14.06362076 4.53924924 -16.43779492 4.45350792 -18.8125 4.375 C-18.8125 3.715 -18.8125 3.055 -18.8125 2.375 C-12.5310443 0.15383462 -6.62576468 0.00820528 0 0 Z " fill="#005C28" transform="translate(201.8125,62.625)"/>
<path d="M0 0 C0.66 0 1.32 0 2 0 C13.22662482 18.83333575 21.3417135 38.20250226 16.875 60.5625 C12.65334022 77.11219914 1.59535811 88.08197132 -12.71630859 96.62060547 C-30.86598749 107 -30.86598749 107 -34 107 C-31.91490457 94.06772272 -22.70316138 83.97266779 -14.68359375 74.16796875 C-13.98363281 73.30816406 -13.28367187 72.44835937 -12.5625 71.5625 C-11.94503906 70.82128906 -11.32757813 70.08007812 -10.69140625 69.31640625 C-8.76656798 66.68031134 -7.38747013 63.94890441 -6 61 C-7.81527107 62.95582748 -9.62728891 64.91449877 -11.4375 66.875 C-12.2119043 67.70837891 -12.2119043 67.70837891 -13.00195312 68.55859375 C-15.82104736 71.54749315 -15.82104736 71.54749315 -18 75 C-18.66 75 -19.32 75 -20 75 C-20.26296875 75.5671875 -20.5259375 76.134375 -20.796875 76.71875 C-22.09021364 79.17105444 -23.60123354 81.27193722 -25.25 83.5 C-29.80399776 89.92132738 -34.40795551 97.18787471 -36 105 C-36.99 104.67 -37.98 104.34 -39 104 C-44.35076814 91.51487435 -43.12350558 75.14447357 -38.8125 62.5234375 C-34.05295955 50.65045345 -26.64146361 41.66995406 -18.3684082 32.12768555 C-9.98592379 22.41244354 -3.68655257 12.40022228 0 0 Z M-3 55 C-2 57 -2 57 -2 57 Z M-4 57 C-4 60 -4 60 -4 60 Z " fill="#419D0C" transform="translate(92,24)"/>
<path d="M0 0 C-1.04762147 3.22345068 -2.13665291 6.30216637 -3.53515625 9.39453125 C-5.70612377 15.16209705 -5.52942065 21.09431631 -5.625 27.1875 C-5.67616074 29.49357052 -5.73071885 31.79956877 -5.7890625 34.10546875 C-5.81540771 35.62370239 -5.81540771 35.62370239 -5.84228516 37.17260742 C-5.9930351 39.8751386 -6.39817778 42.36483962 -7 45 C1.51127419 44.96095746 9.14968562 42.64199906 17.18066406 40.08349609 C18.01823242 39.81746582 18.85580078 39.55143555 19.71875 39.27734375 C20.84700195 38.90984009 20.84700195 38.90984009 21.99804688 38.53491211 C24 38 24 38 27 38 C29.61895048 42.77573323 28.83119431 46.84434881 28 52 C22.90067628 54.34837276 17.97969424 55.93008082 12.5 57.125 C11.33718506 57.38265137 11.33718506 57.38265137 10.15087891 57.64550781 C2.78455734 59.19362273 -4.48199658 59.77822999 -12 60 C-12.20625 61.2375 -12.4125 62.475 -12.625 63.75 C-14.21419907 70.81186349 -16.91292751 78.47966558 -22.62646484 83.14428711 C-26.51372688 85.28259068 -29.49336766 85.51945994 -33.8046875 85.390625 C-34.5286673 85.38496521 -35.25264709 85.37930542 -35.99856567 85.37347412 C-38.29140788 85.35123667 -40.58263716 85.30106987 -42.875 85.25 C-44.43747729 85.22991841 -45.99997929 85.21167055 -47.5625 85.1953125 C-51.3756133 85.15141416 -55.18753402 85.08247971 -59 85 C-60.16552734 83.37548828 -60.16552734 83.37548828 -61 81 C-60.03369141 78.19091797 -60.03369141 78.19091797 -58.3515625 74.9921875 C-57.75859375 73.84105469 -57.165625 72.68992187 -56.5546875 71.50390625 C-55.91218172 70.29388645 -55.26894375 69.08425517 -54.625 67.875 C-53.38186522 65.50053676 -52.14781192 63.12156137 -50.9140625 60.7421875 C-50.3567041 59.6888623 -49.7993457 58.63553711 -49.22509766 57.55029297 C-47.85566468 55.17108396 -47.85566468 55.17108396 -48 53 C-48.78375 52.21625 -49.5675 51.4325 -50.375 50.625 C-54.25258046 46.74741954 -55.28951964 44.09432588 -55.3125 38.625 C-55.32925781 37.70976562 -55.34601562 36.79453125 -55.36328125 35.8515625 C-54.20746267 26.77900807 -46.18347925 19.59904856 -39.5625 13.875 C-37 12 -37 12 -35 12 C-36.06232828 15.50568334 -37.59043001 17.81421101 -40 20.5 C-43.54358639 24.51894554 -45.06416997 27.67870488 -45.3125 33.0625 C-44.98947786 37.13257894 -44.50486247 38.03249803 -42 41 C-41.45472656 39.88882813 -40.90945312 38.77765625 -40.34765625 37.6328125 C-35.8508382 28.68045932 -31.35018539 20.96976914 -24 14 C-23.41605469 13.43152344 -22.83210938 12.86304688 -22.23046875 12.27734375 C-16.74449926 7.25389159 -7.73465184 0 0 0 Z " fill="#F5BB13" transform="translate(78,124)"/>
<path d="M0 0 C3.28213031 1.59930384 4.19885358 4.59906256 5.61914062 7.78710938 C5.94783646 8.49319336 6.27653229 9.19927734 6.6151886 9.92675781 C7.69801554 12.26082787 8.76020881 14.6036806 9.82226562 16.94726562 C10.56756793 18.56646379 11.31424797 20.18502845 12.06225586 21.80297852 C13.22250603 24.3140937 14.38120457 26.82584477 15.53416443 29.34031677 C18.21559353 35.18510107 20.96121616 40.99582476 23.74804688 46.79101562 C24.49269604 48.34569686 25.23716551 49.90046417 25.98144531 51.45532227 C27.05134573 53.69030366 28.12349445 55.92401086 29.20422363 58.15377808 C30.20177529 60.21489154 31.18710268 62.28143959 32.16992188 64.34960938 C32.73203369 65.5187085 33.29414551 66.68780762 33.87329102 67.89233398 C35.03054055 70.90127704 35.43354365 72.83059132 35.07226562 76.00976562 C33.54153373 77.54049752 32.14858589 77.15176255 30.01489258 77.17089844 C29.15342117 77.18050598 28.29194977 77.19011353 27.40437317 77.20001221 C26.46591049 77.20426208 25.52744781 77.20851196 24.56054688 77.21289062 C23.11907539 77.22144073 23.11907539 77.22144073 21.64848328 77.23016357 C19.60819607 77.23963218 17.56789344 77.2461549 15.52758789 77.25 C12.41525198 77.2596709 9.303586 77.29066237 6.19140625 77.32226562 C4.21029038 77.3287989 2.22916979 77.3340481 0.24804688 77.33789062 C-1.14446541 77.35641083 -1.14446541 77.35641083 -2.56510925 77.37530518 C-7.76219282 77.35752544 -11.4723166 76.994442 -15.92773438 74.00976562 C-21.36994153 68.17752142 -24.17332546 59.30501804 -27.42773438 52.13476562 C-28.53982859 49.69871907 -29.6554575 47.26432968 -30.77148438 44.83007812 C-31.30128906 43.66895508 -31.83109375 42.50783203 -32.37695312 41.31152344 C-34.15038887 37.53571345 -36.06393458 33.85008886 -38.0625 30.18896484 C-39.12369056 27.51622585 -39.43262515 25.85468055 -38.92773438 23.00976562 C-36.9309082 21.29980469 -36.9309082 21.29980469 -34.13476562 19.77539062 C-33.11737305 19.20506104 -32.09998047 18.63473145 -31.05175781 18.04711914 C-29.95895508 17.45729248 -28.86615234 16.86746582 -27.74023438 16.25976562 C-25.53070886 15.02855412 -23.32365501 13.79289611 -21.11914062 12.55273438 C-20.05066895 11.95251465 -18.98219727 11.35229492 -17.88134766 10.73388672 C-13.10460518 7.94554523 -8.70904886 4.74167108 -4.31835938 1.38867188 C-1.92773438 0.00976562 -1.92773438 0.00976562 0 0 Z " fill="#005228" transform="translate(202.927734375,131.990234375)"/>
<path d="M0 0 C1.02931641 -0.02449219 2.05863281 -0.04898438 3.11914062 -0.07421875 C11.01197002 -0.10417256 18.39513241 0.95069582 24.44140625 6.41015625 C25.08916016 7.41369141 25.08916016 7.41369141 25.75 8.4375 C26.20503906 9.10910156 26.66007812 9.78070313 27.12890625 10.47265625 C30.56347862 16.64474756 29.98954685 24.56400034 28.57421875 31.2890625 C26.17177335 38.63398369 21.95989446 44.37569441 17.1875 50.375 C16.0428125 51.921875 16.0428125 51.921875 14.875 53.5 C10.7110328 57.95447654 5.98243978 61.62270988 1.1875 65.375 C0.28 66.09816406 -0.6275 66.82132812 -1.5625 67.56640625 C-13.17875587 76.58513824 -25.96191223 83.85120157 -38.75 91.0625 C-39.51328613 91.4968335 -40.27657227 91.93116699 -41.06298828 92.37866211 C-42.12815674 92.97046265 -42.12815674 92.97046265 -43.21484375 93.57421875 C-43.83866943 93.92315186 -44.46249512 94.27208496 -45.10522461 94.6315918 C-46.8125 95.375 -46.8125 95.375 -49.8125 95.375 C-50.00908808 93.95956585 -50.19437546 92.54255969 -50.375 91.125 C-50.47941406 90.33609375 -50.58382812 89.5471875 -50.69140625 88.734375 C-50.81277349 86.36967126 -50.50883257 84.6238963 -49.8125 82.375 C-51.1325 82.375 -52.4525 82.375 -53.8125 82.375 C-53.8125 81.055 -53.8125 79.735 -53.8125 78.375 C-52.73355469 77.92511719 -51.65460938 77.47523438 -50.54296875 77.01171875 C-33.20619599 69.63445182 -14.90313479 60.77749798 -1.58984375 47.08984375 C0.1875 45.375 0.1875 45.375 2.1875 45.375 C2.1875 44.715 2.1875 44.055 2.1875 43.375 C2.8475 43.375 3.5075 43.375 4.1875 43.375 C4.44789063 42.80007812 4.70828125 42.22515625 4.9765625 41.6328125 C6.27414797 39.21344347 7.79224921 37.34492561 9.5625 35.25 C13.83951248 29.81873102 17.32477324 24.08137739 17.0625 17 C15.52066871 12.21156421 15.52066871 12.21156421 12 8.75 C5.1731469 5.41242737 -1.25879923 4.99578102 -8.75 4.75 C-9.72001953 4.71132812 -10.69003906 4.67265625 -11.68945312 4.6328125 C-14.06362076 4.53924924 -16.43779492 4.45350792 -18.8125 4.375 C-18.8125 3.715 -18.8125 3.055 -18.8125 2.375 C-12.5310443 0.15383462 -6.62576468 0.00820528 0 0 Z " fill="#F4B911" transform="translate(201.8125,62.625)"/>
<path d="M0 0 C-1.04859611 3.22644957 -2.13895849 6.30718997 -3.5390625 9.40234375 C-5.6963688 15.13275041 -5.4907239 21.00938227 -5.5625 27.0625 C-5.8325 44.8325 -5.8325 44.8325 -9 48 C-32.62036147 49.14506826 -32.62036147 49.14506826 -41 43 C-39.36112032 29.31535465 -29.21123279 17.84639614 -18.88671875 9.375 C-6.02272727 0 -6.02272727 0 0 0 Z " fill="#378A0B" transform="translate(78,124)"/>
<path d="M0 0 C4.42997865 0.40272533 8.56922421 1.39927536 12.875 2.5 C20.86072158 4.41023678 28.82683036 4.71614141 37 5 C36.34 5.33 35.68 5.66 35 6 C34.7525 7.258125 34.505 8.51625 34.25 9.8125 C32.79921766 16.8850639 30.06909277 24.49434451 24.37353516 29.14428711 C20.48627312 31.28259068 17.50663234 31.51945994 13.1953125 31.390625 C12.4713327 31.38496521 11.74735291 31.37930542 11.00143433 31.37347412 C8.70859212 31.35123667 6.41736284 31.30106987 4.125 31.25 C2.56252271 31.22991841 1.00002071 31.21167055 -0.5625 31.1953125 C-4.3756133 31.15141416 -8.18753402 31.08247971 -12 31 C-13.16333008 29.37768555 -13.16333008 29.37768555 -14 27 C-13.04956055 24.17504883 -13.04956055 24.17504883 -11.38671875 20.95703125 C-10.79826172 19.80138672 -10.20980469 18.64574219 -9.60351562 17.45507812 C-8.96501432 16.24079571 -8.32634037 15.02660407 -7.6875 13.8125 C-7.05912924 12.58731458 -6.4321588 11.36140988 -5.80664062 10.13476562 C-1.22421335 1.22421335 -1.22421335 1.22421335 0 0 Z " fill="#31810A" transform="translate(31,178)"/>
<path d="M0 0 C1.84082031 0.01391602 1.84082031 0.01391602 4 1 C5.38498139 3.26432551 6.47386005 5.36880111 7.546875 7.77734375 C7.87557083 8.48342773 8.20426666 9.18951172 8.54292297 9.91699219 C9.62574992 12.25106224 10.68794319 14.59391497 11.75 16.9375 C12.4953023 18.55669816 13.24198235 20.17526283 13.98999023 21.79321289 C15.15024041 24.30432808 16.30893895 26.81607915 17.4618988 29.33055115 C20.14332791 35.17533545 22.88895054 40.98605913 25.67578125 46.78125 C26.42043042 48.33593123 27.16489988 49.89069855 27.90917969 51.44555664 C28.97908011 53.68053803 30.05122882 55.91424523 31.13195801 58.14401245 C32.12950967 60.20512592 33.11483705 62.27167396 34.09765625 64.33984375 C34.65976807 65.50894287 35.22187988 66.67804199 35.80102539 67.88256836 C36.95827493 70.89151142 37.36127803 72.82082569 37 76 C35.46926811 77.53073189 34.07632026 77.14199693 31.94262695 77.16113281 C31.08115555 77.17074036 30.21968414 77.1803479 29.33210754 77.19024658 C28.39364487 77.19449646 27.45518219 77.19874634 26.48828125 77.203125 C25.04680977 77.21167511 25.04680977 77.21167511 23.57621765 77.22039795 C21.53593045 77.22986655 19.49562782 77.23638928 17.45532227 77.24023438 C14.34298636 77.24990527 11.23132037 77.28089675 8.11914062 77.3125 C6.13802476 77.31903328 4.15690416 77.32428247 2.17578125 77.328125 C0.78326897 77.3466452 0.78326897 77.3466452 -0.63737488 77.36553955 C-5.83435596 77.34776016 -9.54483459 76.98493923 -14 74 C-19.42549443 68.17745138 -22.2412343 59.33810371 -25.5 52.1875 C-26.06070694 50.96787312 -26.62190237 49.74847069 -27.18359375 48.52929688 C-30.4779809 41.36303589 -33.74185884 34.18280386 -37 27 C-34 28 -34 28 -32.59301758 30.32226562 C-32.11501709 31.33998047 -31.6370166 32.35769531 -31.14453125 33.40625 C-30.60820068 34.53554932 -30.07187012 35.66484863 -29.51928711 36.82836914 C-29.10089066 37.72847214 -29.10089066 37.72847214 -28.67404175 38.64675903 C-27.81119547 40.50280614 -26.93572245 42.35240532 -26.05688477 44.20092773 C-23.49066191 49.61268568 -20.96915464 55.04351022 -18.5078125 60.50390625 C-18.15098389 61.28765625 -17.79415527 62.07140625 -17.42651367 62.87890625 C-16.78436901 64.29666528 -16.15360899 65.71965654 -15.53637695 67.1484375 C-13.86552219 70.84507809 -12.79273607 72.55499363 -9 74 C-6.82149119 74.28594381 -6.82149119 74.28594381 -4.50683594 74.22705078 C-3.62622498 74.22689972 -2.74561401 74.22674866 -1.83831787 74.22659302 C-0.89651672 74.21627045 0.04528442 74.20594788 1.015625 74.1953125 C2.47207428 74.19106766 2.47207428 74.19106766 3.95794678 74.18673706 C7.05542385 74.17555292 10.1526105 74.15045142 13.25 74.125 C15.35155832 74.11496792 17.45312118 74.10584247 19.5546875 74.09765625 C24.70323669 74.07561934 29.85156913 74.04110145 35 74 C32.85183156 68.55655136 30.68261253 63.14358832 28.23046875 57.828125 C27.73780518 56.75892822 27.2451416 55.68973145 26.73754883 54.58813477 C26.22603271 53.48655029 25.7145166 52.38496582 25.1875 51.25 C24.65342529 50.0962085 24.11935059 48.94241699 23.5690918 47.75366211 C20.39728323 40.92803793 17.14069437 34.16458594 13.734375 27.453125 C11.46207871 22.92900356 9.2523533 18.37700615 7.0625 13.8125 C6.6600708 12.98500244 6.2576416 12.15750488 5.84301758 11.30493164 C5.28843872 10.14272095 5.28843872 10.14272095 4.72265625 8.95703125 C4.39015869 8.26585205 4.05766113 7.57467285 3.71508789 6.86254883 C3 5 3 5 3 2 C1.68 1.67 0.36 1.34 -1 1 C-0.67 0.67 -0.34 0.34 0 0 Z " fill="#003115" transform="translate(201,132)"/>
<path d="M0 0 C3.08325358 -0.0582253 6.16636505 -0.09367134 9.25 -0.125 C10.55904297 -0.15013672 10.55904297 -0.15013672 11.89453125 -0.17578125 C12.73886719 -0.18222656 13.58320312 -0.18867188 14.453125 -0.1953125 C15.22817383 -0.20578613 16.00322266 -0.21625977 16.80175781 -0.22705078 C19.33253564 0.03434675 20.89764735 0.56540521 23 2 C23.39460023 4.32375692 23.72230092 6.6593935 24 9 C24.75410156 10.16208984 24.75410156 10.16208984 25.5234375 11.34765625 C27.31134761 14.55927256 27.24943812 16.48654585 27.0625 20.125 C26.75764404 24.86396756 26.75764404 24.86396756 29 29 C29.22683072 30.97666769 29.45154397 32.95371995 29.6484375 34.93359375 C30.15918447 37.93565094 31.54872923 40.34985338 33 43 C33 43.66 33 44.32 33 45 C34.60785777 44.40572612 36.21117709 43.79916412 37.8125 43.1875 C38.70582031 42.85105469 39.59914062 42.51460937 40.51953125 42.16796875 C44.78588651 40.15908651 46.91177356 37.17645287 49 33 C49.71923208 29.30476048 49.71923208 29.30476048 50 26 C51.65 25.34 53.3 24.68 55 24 C55.020625 22.7625 55.04125 21.525 55.0625 20.25 C55.07410156 19.55390625 55.08570313 18.8578125 55.09765625 18.140625 C55.0982102 15.9812548 55.0982102 15.9812548 54.3125 13.96875 C54 12 54 12 55.21484375 10.078125 C55.78332031 9.47484375 56.35179687 8.8715625 56.9375 8.25 C57.50339844 7.63640625 58.06929687 7.0228125 58.65234375 6.390625 C59.31943359 5.70226562 59.31943359 5.70226562 60 5 C60.66 5.33 61.32 5.66 62 6 C61.154375 6.804375 60.30875 7.60875 59.4375 8.4375 C57.67386949 10.51062555 57.00092553 11.47244624 56.99609375 14.2265625 C57.248183 15.78067971 57.5124731 17.33286812 57.7890625 18.8828125 C58 21 58 21 56.75 23.9375 C55 26 55 26 52 28 C51.56460434 29.64110672 51.13030485 31.28251681 50.703125 32.92578125 C49.01369017 37.90961401 46.39847777 42.66569325 41.7109375 45.2734375 C37.91285796 46.62194131 35.89972239 47.29990746 32 46 C28.80489695 41.5427744 27.43150823 36.4073324 26.4921875 31.078125 C26.08713194 28.94768005 26.08713194 28.94768005 24.91015625 27.04296875 C23.7409157 24.41845027 24.08230499 22.87012668 24.5625 20.0625 C25.1442025 15.54108512 24.57410448 13.80967463 22 10 C21.8125 6.1875 21.8125 6.1875 22 3 C16.07069305 2.13929415 11.07902903 2.04384591 5.1640625 3.0390625 C3 3 3 3 1.36474609 1.49755859 C0.91437988 1.00336426 0.46401367 0.50916992 0 0 Z " fill="#013D12" transform="translate(85,152)"/>
<path d="M0 0 C-1.06232828 3.50568334 -2.59043001 5.81421101 -5 8.5 C-9.07911698 13.1263156 -10.39749555 16.92021346 -10.26953125 23.0625 C-9.88153684 25.85156126 -8.6690559 27.77459214 -7 30 C-10.875 28.25 -10.875 28.25 -12 26 C-12.07065617 23.95944995 -12.08421976 21.91665743 -12.0625 19.875 C-12.05347656 18.77929688 -12.04445313 17.68359375 -12.03515625 16.5546875 C-12.02355469 15.71164063 -12.01195312 14.86859375 -12 14 C-14.96059887 16.27738375 -16.66352089 17.71717338 -17.625 21.3828125 C-18.20053728 26.2029372 -18.15278773 29.55987531 -16 34 C-16.33 34.99 -16.66 35.98 -17 37 C-20.44900238 32.83245546 -20.35439635 28.97656053 -20.3984375 23.81640625 C-19.11608457 14.7519311 -11.20432673 7.61707188 -4.5625 1.875 C-2 0 -2 0 0 0 Z " fill="#ECB205" transform="translate(43,136)"/>
<path d="M0 0 C0.56131481 6.45512034 -1.36536213 11.15439723 -4 17 C-5.65 17 -7.3 17 -9 17 C-10.36356812 12.90929563 -10.90362388 9.25787572 -10 5 C-7.19468832 1.23200763 -4.70015086 -1.56671695 0 0 Z " fill="#00461D" transform="translate(153,171)"/>
<path d="M0 0 C1.22025442 3.66076326 0.69520937 3.92960787 -0.9375 7.25 C-3.32814555 13.40446467 -3.38783058 19.23617217 -3.375 25.75 C-3.37681274 27.24128418 -3.37681274 27.24128418 -3.37866211 28.76269531 C-3.29868883 34.20819014 -2.79728014 38.85258968 -1 44 C-0.5875 43.10539062 -0.175 42.21078125 0.25 41.2890625 C4.00235178 33.36242539 8.13547917 26.6109144 14 20 C14.66 20.33 15.32 20.66 16 21 C15.50371094 21.55945313 15.00742188 22.11890625 14.49609375 22.6953125 C8.21216976 30.11201216 1.89462947 39.26304346 0 49 C-0.99 48.67 -1.98 48.34 -3 48 C-8.65907095 34.79550111 -7.07145426 17.3516985 -1.875 4.25 C-1.2623545 2.82794693 -0.6421449 1.40897813 0 0 Z " fill="#247502" transform="translate(56,80)"/>
<path d="M0 0 C1.08796875 -0.00773437 2.1759375 -0.01546875 3.296875 -0.0234375 C4.3384375 -0.02085938 5.38 -0.01828125 6.453125 -0.015625 C7.39833008 -0.01336914 8.34353516 -0.01111328 9.31738281 -0.00878906 C11.75 0.25 11.75 0.25 14.75 2.25 C10.13 2.25 5.51 2.25 0.75 2.25 C3.39 3.24 6.03 4.23 8.75 5.25 C4.75 6.25 4.75 6.25 1.75 5.25 C0.12432921 5.10284801 -1.50586857 5.00278133 -3.13671875 4.93359375 C-4.07451172 4.89169922 -5.01230469 4.84980469 -5.97851562 4.80664062 C-6.95498047 4.76732422 -7.93144531 4.72800781 -8.9375 4.6875 C-9.92556641 4.64431641 -10.91363281 4.60113281 -11.93164062 4.55664062 C-14.37095546 4.45058346 -16.81037113 4.34852286 -19.25 4.25 C-19.25 3.59 -19.25 2.93 -19.25 2.25 C-12.8347441 -0.05949213 -6.77079351 -0.04882784 0 0 Z " fill="#F2B206" transform="translate(202.25,62.75)"/>
<path d="M0 0 C0.66 0.33 1.32 0.66 2 1 C1.29875 1.54527344 0.5975 2.09054688 -0.125 2.65234375 C-10.67554306 11.03830529 -17.3845378 18.72549413 -23 31 C-23.99348007 33.0032467 -24.99172951 35.00415666 -26 37 C-26.7109375 35.4453125 -26.7109375 35.4453125 -27 33 C-25.9827196 30.47167152 -24.93428519 28.24431004 -23.625 25.875 C-23.262854 25.20992432 -22.90070801 24.54484863 -22.52758789 23.85961914 C-17.05627899 14.17330659 -9.24264229 6.16176153 0 0 Z " fill="#216F02" transform="translate(64,130)"/>
<path d="M0 0 C0 0.33 0 0.66 0 1 C-12.21762737 2.62275841 -23.72217485 3.16332786 -36 2 C-36 1.67 -36 1.34 -36 1 C-23.99494383 -0.14724086 -12.04750524 -0.1063689 0 0 Z " fill="#D4A807" transform="translate(87,181)"/>
<path d="M0 0 C-3.62128443 2.00678401 -7.24761643 4.0042648 -10.875 6 C-12.42380859 6.85851562 -12.42380859 6.85851562 -14.00390625 7.734375 C-15.48310547 8.54648438 -15.48310547 8.54648438 -16.9921875 9.375 C-17.90339355 9.87773437 -18.81459961 10.38046875 -19.75341797 10.8984375 C-22 12 -22 12 -24 12 C-23.25 7.25 -23.25 7.25 -21 5 C-20.67 5.99 -20.34 6.98 -20 8 C-19.50072998 7.72212646 -19.00145996 7.44425293 -18.48706055 7.15795898 C-16.22617629 5.90728501 -13.95709445 4.67229148 -11.6875 3.4375 C-10.50897461 2.78104492 -10.50897461 2.78104492 -9.30664062 2.11132812 C-8.1706543 1.49741211 -8.1706543 1.49741211 -7.01171875 0.87109375 C-6.31522217 0.48880615 -5.61872559 0.10651855 -4.90112305 -0.28735352 C-3 -1 -3 -1 0 0 Z " fill="#237103" transform="translate(82,119)"/>
<path d="M0 0 C0.33 0 0.66 0 1 0 C0.07692308 8 0.07692308 8 -2 11 C-2.99 11.33 -3.98 11.66 -5 12 C-6.70586575 13.62652316 -8.3777546 15.29006566 -10 17 C-8.23384892 13.26426682 -6.0975602 9.76637707 -3.9375 6.25 C-3.57333984 5.64800781 -3.20917969 5.04601562 -2.83398438 4.42578125 C-1.91804779 2.93251679 -0.96242579 1.4637333 0 0 Z " fill="#298103" transform="translate(93,70)"/>
<path d="M0 0 C0.33 0.99 0.66 1.98 1 3 C-1.76452033 4.38226016 -4.0461363 4.09525387 -7.125 4.0625 C-8.22070312 4.05347656 -9.31640625 4.04445313 -10.4453125 4.03515625 C-11.70988281 4.01775391 -11.70988281 4.01775391 -13 4 C-13 3.34 -13 2.68 -13 2 C-8.46298506 0.54815522 -4.81938524 -0.23509196 0 0 Z " fill="#DBAA02" transform="translate(196,63)"/>
<path d="M0 0 C0.66 0.33 1.32 0.66 2 1 C0.6875 3 0.6875 3 -1 5 C-1.99 5 -2.98 5 -4 5 C-4.33 5.99 -4.66 6.98 -5 8 C-5.99 8.66 -6.98 9.32 -8 10 C-9.32 9.67 -10.64 9.34 -12 9 C-8.04 6.03 -4.08 3.06 0 0 Z " fill="#E8B304" transform="translate(194,115)"/>
<path d="M0 0 C-1.47692308 4.67692308 -1.47692308 4.67692308 -4.125 6.3125 C-5.053125 6.6528125 -5.053125 6.6528125 -6 7 C-6.33 6.01 -6.66 5.02 -7 4 C-2.25 0 -2.25 0 0 0 Z " fill="#C5A203" transform="translate(43,136)"/>
<path d="M0 0 C0 0.66 0 1.32 0 2 C-0.99 2 -1.98 2 -3 2 C-3.33 2.99 -3.66 3.98 -4 5 C-7.5625 6.1875 -7.5625 6.1875 -11 7 C-11 6.34 -11 5.68 -11 5 C-9.54462432 4.16151196 -8.08559627 3.32936066 -6.625 2.5 C-5.81289062 2.0359375 -5.00078125 1.571875 -4.1640625 1.09375 C-2 0 -2 0 0 0 Z " fill="#E8A102" transform="translate(182,125)"/>
<path d="M0 0 C-0.66 1.98 -1.32 3.96 -2 6 C-2.33 5.01 -2.66 4.02 -3 3 C-7.455 4.485 -7.455 4.485 -12 6 C-8.69727388 2.69727388 -4.86679267 0 0 0 Z " fill="#1D7302" transform="translate(78,124)"/>
<path d="M0 0 C0 0.66 0 1.32 0 2 C-3.04117196 4.02744797 -5.48143999 5.06650449 -9 6 C-11.19140625 5.55078125 -11.19140625 5.55078125 -13 5 C-11.21046815 4.16209211 -9.41830305 3.32980604 -7.625 2.5 C-6.62726563 2.0359375 -5.62953125 1.571875 -4.6015625 1.09375 C-2 0 -2 0 0 0 Z " fill="#DCA803" transform="translate(168,133)"/>
<path d="M0 0 C0.98120464 3.05263664 0.98120464 4.94736336 0 8 C-0.99 7.67 -1.98 7.34 -3 7 C-3.33 5.02 -3.66 3.04 -4 1 C-2.515 1.99 -2.515 1.99 -1 3 C-0.67 2.01 -0.34 1.02 0 0 Z " fill="#318103" transform="translate(56,121)"/>
</svg>
