<?xml version="1.0" encoding="UTF-8"?>
<svg version="1.1" xmlns="http://www.w3.org/2000/svg" width="35" height="48">
<path d="M0 0 C11.55 0 23.1 0 35 0 C35 15.84 35 31.68 35 48 C23.45 48 11.9 48 0 48 C0 32.16 0 16.32 0 0 Z " fill="#FAFCFA" transform="translate(0,0)"/>
<path d="M0 0 C0 0.66 0 1.32 0 2 C3.3 2 6.6 2 10 2 C10.4125 3.258125 10.825 4.51625 11.25 5.8125 C12.53248932 9.27951659 13.66387883 11.15938142 17 13 C16.34 13.70125 15.68 14.4025 15 15.125 C12.69766797 18.43460229 12.63369844 20.06225823 13 24 C12.34 24.33 11.68 24.66 11 25 C10.566875 25.99 10.13375 26.98 9.6875 28 C8 31 8 31 5.3125 31.875 C4.549375 31.91625 3.78625 31.9575 3 32 C0.74566386 26.43930418 0.40038172 20.9214349 0 15 C-1.258125 15.061875 -2.51625 15.12375 -3.8125 15.1875 C-7.70339488 15.16684038 -7.70339488 15.16684038 -10 13.875 C-11.44185259 11.1715264 -11.25635542 9.01217617 -11 6 C-10.67 5.34 -10.34 4.68 -10 4 C-9.34 4 -8.68 4 -8 4 C-7.67 3.01 -7.34 2.02 -7 1 C-4 0 -4 0 0 0 Z " fill="#175F2B" transform="translate(14,12)"/>
<path d="M0 0 C0 0.66 0 1.32 0 2 C3.3 2 6.6 2 10 2 C10.33 3.65 10.66 5.3 11 7 C10.34 7 9.68 7 9 7 C9 8.65 9 10.3 9 12 C7.02 12.99 7.02 12.99 5 14 C4.34 12.68 3.68 11.36 3 10 C-0.465 11.485 -0.465 11.485 -4 13 C-4 13.66 -4 14.32 -4 15 C-8.75 14.25 -8.75 14.25 -11 12 C-11.33333333 6.66666667 -11.33333333 6.66666667 -10 4 C-9.34 4 -8.68 4 -8 4 C-7.67 3.01 -7.34 2.02 -7 1 C-4 0 -4 0 0 0 Z " fill="#40873A" transform="translate(14,12)"/>
<path d="M0 0 C0.66 0 1.32 0 2 0 C4.66918064 3.47802325 6.88229614 6.5272535 7 11 C5.8125 13.3125 5.8125 13.3125 4 15 C2.68 15 1.36 15 0 15 C-1.97459273 10.23774693 -2.06449259 7.03214681 -1 2 C-0.67 1.34 -0.34 0.68 0 0 Z " fill="#0E552A" transform="translate(17,29)"/>
<path d="M0 0 C1.32 0 2.64 0 4 0 C4.33 1.65 4.66 3.3 5 5 C4.34 5 3.68 5 3 5 C3 6.65 3 8.3 3 10 C1.02 10.99 1.02 10.99 -1 12 C-2.36884358 7.48281619 -1.47075246 4.41225737 0 0 Z " fill="#77B049" transform="translate(20,14)"/>
<path d="M0 0 C0.99 0.33 1.98 0.66 3 1 C2.3125 3.875 2.3125 3.875 1 7 C-1.4375 8.4375 -1.4375 8.4375 -4 9 C-4.99 8.67 -5.98 8.34 -7 8 C-6.34 7.01 -5.68 6.02 -5 5 C-4.01 5 -3.02 5 -2 5 C-2 3.68 -2 2.36 -2 1 C-1.34 0.67 -0.68 0.34 0 0 Z " fill="#4A8F38" transform="translate(18,14)"/>
<path d="M0 0 C1.32 0.33 2.64 0.66 4 1 C3.34 3.31 2.68 5.62 2 8 C2.66 8.33 3.32 8.66 4 9 C1.13275314 8.42655063 0.1385485 8.1385485 -2 6 C-2 4.68 -2 3.36 -2 2 C-1.34 2 -0.68 2 0 2 C0 1.34 0 0.68 0 0 Z " fill="#CAD8CF" transform="translate(27,15)"/>
<path d="M0 0 C1.65 0.33 3.3 0.66 5 1 C5 1.66 5 2.32 5 3 C5.66 3.33 6.32 3.66 7 4 C6.01 5.98 5.02 7.96 4 10 C2.5393715 7.35261084 2 6.10551666 2 3 C1.01 2.67 0.02 2.34 -1 2 C-0.67 1.34 -0.34 0.68 0 0 Z " fill="#76B145" transform="translate(12,24)"/>
<path d="M0 0 C2 3 2 3 2 5 C0.39125 4.7215625 0.39125 4.7215625 -1.25 4.4375 C-4.40391546 4.0695432 -6.09818492 3.95534657 -9 5 C-6.47043472 1.9083091 -3.77545388 1.09068668 0 0 Z " fill="#0F5226" transform="translate(17,21)"/>
<path d="M0 0 C0.99 0.33 1.98 0.66 3 1 C3.33 1.99 3.66 2.98 4 4 C3.01 4.495 3.01 4.495 2 5 C2 4.34 2 3.68 2 3 C1.34 3 0.68 3 0 3 C-0.66 4.32 -1.32 5.64 -2 7 C-2.33 6.34 -2.66 5.68 -3 5 C-1.5625 2.375 -1.5625 2.375 0 0 Z " fill="#0B5328" transform="translate(13,16)"/>
<path d="M0 0 C4.42857143 5.14285714 4.42857143 5.14285714 5 9 C2.5 7.3125 2.5 7.3125 0 5 C-0.3125 2.25 -0.3125 2.25 0 0 Z " fill="#468D3A" transform="translate(20,28)"/>
</svg>
